<?xml version="1.0" encoding="UTF-8"?>
<svg id="Layer_1" data-name="Layer 1" xmlns="http://www.w3.org/2000/svg" viewBox="0 0 69.76 76.29">
  <defs>
    <style>
      .cls-1 {
        fill: #074c7f;
      }

      .cls-2 {
        fill: #007c6d;
      }

      .cls-3 {
        fill: none;
        stroke: #007c6d;
        stroke-miterlimit: 10;
      }
    </style>
  </defs>
  <polyline class="cls-3" points="30.49 75.5 2.26 75.5 2.26 47.89"/>
  <polyline class="cls-3" points="45.49 .5 69.26 .5 69.26 59.5"/>
  <g>
    <path class="cls-1" d="M46,31.55c0-3.83-1.49-7.42-4.19-10.13-.53-.53-1.1-1.01-1.69-1.45l-2.24,3.76c2.35,1.87,4.02,4.58,4.02,7.81,0,5.64-4.57,10.21-10.21,10.21-1.32,0-2.58-.25-3.74-.71l-2.08,3.59c1.81,.8,3.78,1.23,5.81,1.23,7.9,0,14.32-6.42,14.32-14.32Z"/>
    <g>
      <path class="cls-2" d="M42.36,5.63c-.02-1.31-.14-2.56-.37-3.71l-.08-.39-.29,.27c-.89,.8-1.75,1.74-2.56,2.78-4.23,5.45-6.38,12.74-5.12,17.33l.04,.13,.14,.03c.27,.05,.52,.12,.75,.19,.28,.09,.55,.2,.82,.32l.13,.06,.11-.08c3.83-2.98,6.54-10.1,6.45-16.92Z"/>
      <path class="cls-2" d="M27.78,.45l-.24-.32-.15,.37c-.44,1.11-.8,2.33-1.07,3.63-1.39,6.76-.1,14.25,3.07,17.81l.09,.11,.13-.04c.27-.07,.52-.12,.76-.16,.29-.04,.58-.07,.87-.08h.14s.06-.13,.06-.13c2.11-4.36,1.4-11.95-1.7-18.03-.6-1.17-1.26-2.23-1.97-3.17Z"/>
      <path class="cls-2" d="M17.56,7.39c-1.05-.79-2.12-1.45-3.17-1.97l-.36-.18,.03,.4c.09,1.19,.31,2.44,.65,3.73,1.74,6.67,6.21,12.82,10.63,14.62l.13,.05,.1-.09c.21-.18,.41-.34,.61-.48,.24-.17,.49-.32,.75-.46l.12-.06v-.14c-.04-4.85-4.03-11.33-9.5-15.42Z"/>
      <path class="cls-2" d="M6.61,19.2c4.51,5.21,11.24,8.75,16,8.41h.14s.05-.14,.05-.14c.1-.26,.21-.48,.33-.7,.14-.26,.3-.51,.47-.74l.08-.11-.06-.12c-2.18-4.33-8.62-8.38-15.33-9.63-1.29-.24-2.54-.36-3.71-.36h-.4s.2,.34,.2,.34c.61,1.03,1.36,2.05,2.23,3.06Z"/>
      <path class="cls-2" d="M21.75,32.07l.12-.07v-.14c-.03-.28-.03-.53-.02-.78,.01-.29,.04-.59,.09-.87l.02-.14-.11-.08c-3.87-2.93-11.44-3.71-18.01-1.86-1.26,.35-2.44,.8-3.49,1.31l-.36,.18,.33,.22c1,.65,2.13,1.24,3.35,1.76,6.36,2.68,13.96,2.88,18.07,.47Z"/>
      <path class="cls-2" d="M22.87,36.53l.08-.12-.07-.12c-.14-.24-.25-.46-.35-.69-.12-.27-.22-.55-.3-.82l-.04-.13-.14-.03c-4.76-.92-11.9,1.73-16.98,6.29-.98,.88-1.83,1.79-2.55,2.72l-.24,.31,.4,.05c1.19,.14,2.46,.17,3.78,.09,6.89-.4,13.79-3.59,16.42-7.56Z"/>
      <path class="cls-2" d="M25.16,39.29c-.22-.19-.44-.39-.63-.61l-.09-.1-.13,.04c-4.68,1.29-9.91,6.82-12.44,13.15-.49,1.22-.85,2.42-1.08,3.57l-.08,.39,.37-.13c1.12-.4,2.28-.93,3.43-1.59,6-3.41,10.78-9.31,11.38-14.04l.02-.14-.12-.08c-.23-.15-.43-.31-.62-.46Z"/>
    </g>
    <path class="cls-1" d="M58.8,35.86c1.08-.28,2.18-.62,3.07-1,.12-1.09,.11-3.87,.1-4.18-.86-.42-1.86-.86-2.9-1.19-1.91-.6-4.65-.87-6.55-1.02-.24-1.49-.08-.7-.5-2.21,1.69-.93,4.09-2.32,5.58-3.68,.83-.75,1.54-1.52,2.15-2.28-.53-1.32-1.15-2.59-1.85-3.81-.96,.04-1.98,.14-3.05,.34-1.97,.37-4.52,1.42-6.26,2.18-.91-1.2-.4-.58-1.48-1.72,1.05-1.62,2.53-3.97,3.2-5.87,.37-1.05,.6-1.96,.78-2.92-.88-.74-1.81-1.44-2.78-2.08l-6.55,11.33c.7,.52,1.38,1.08,2.01,1.71,3.23,3.23,5.02,7.53,5.02,12.11s-1.78,8.87-5.02,12.11c-3.23,3.23-7.53,5.01-12.11,5.01-2.42,0-4.77-.51-6.92-1.46l-6.59,11.41c1.01,.5,2.04,.96,3.11,1.35,.66-.61,1.31-1.3,1.95-2.08,1.27-1.54,2.56-3.99,3.4-5.7,1.47,.34,.68,.19,2.24,.37,.23,1.91,.61,4.67,1.32,6.56,.37,.98,.78,2.01,1.22,2.81,.09,0,3.04-.1,4.38-.28,.3-.86,.56-1.92,.77-2.93,.4-1.96,.38-4.72,.33-6.62,1.46-.4,.69-.15,2.15-.73,1.1,1.58,2.73,3.84,4.24,5.17,.8,.71,1.69,1.37,2.47,1.88,1.29-.67,2.52-1.43,3.69-2.28-.14-.92-.44-1.93-.74-2.94-.57-1.92-1.88-4.35-2.82-6.01,1.1-1.03,.54-.46,1.56-1.65,1.72,.88,4.21,2.1,6.17,2.58,1.07,.26,2.17,.46,3.12,.54,.81-1.18,1.53-2.41,2.17-3.69-.56-.76-1.3-1.58-2.06-2.35-1.4-1.43-3.7-2.96-5.31-3.98,.49-1.43,.26-.65,.6-2.19,1.93-.03,4.71-.12,6.66-.62Z"/>
  </g>
  <g>
    <path class="cls-1" d="M43.47,70.99h-4.84v3.28h5.68v2.02h-8.2v-12.23h8.18v2.04h-5.66v2.91h4.84v1.97Z"/>
    <path class="cls-1" d="M53.19,70.99h-4.84v3.28h5.68v2.02h-8.2v-12.23h8.18v2.04h-5.66v2.91h4.84v1.97Z"/>
    <path class="cls-1" d="M62.46,73.77h-4.42l-.84,2.52h-2.68l4.55-12.23h2.33l4.58,12.23h-2.68l-.85-2.52Zm-3.74-2.04h3.06l-1.54-4.58-1.52,4.58Z"/>
  </g>
</svg>